<?xml version="1.0" encoding="UTF-8" standalone="no"?>
<!-- Created with Inkscape (http://www.inkscape.org/) -->

<svg
   width="32.416115mm"
   height="23.15518mm"
   viewBox="0 0 32.416115 23.15518"
   version="1.1"
   id="svg1"
   xml:space="preserve"
   inkscape:version="1.4 (e7c3feb100, 2024-10-09)"
   sodipodi:docname="git-decribe-project-version-icon-2.svg"
   xmlns:inkscape="http://www.inkscape.org/namespaces/inkscape"
   xmlns:sodipodi="http://sodipodi.sourceforge.net/DTD/sodipodi-0.dtd"
   xmlns="http://www.w3.org/2000/svg"
   xmlns:svg="http://www.w3.org/2000/svg"><sodipodi:namedview
     id="namedview1"
     pagecolor="#ffffff"
     bordercolor="#000000"
     borderopacity="0.25"
     inkscape:showpageshadow="2"
     inkscape:pageopacity="0.0"
     inkscape:pagecheckerboard="0"
     inkscape:deskcolor="#d1d1d1"
     inkscape:document-units="mm"
     inkscape:zoom="4"
     inkscape:cx="51.625"
     inkscape:cy="64"
     inkscape:window-width="1920"
     inkscape:window-height="1048"
     inkscape:window-x="0"
     inkscape:window-y="0"
     inkscape:window-maximized="1"
     inkscape:current-layer="layer1" /><defs
     id="defs1"><clipPath
       id="a"><path
         d="M 0,0.113 H 91.887 V 92 H 0 Z m 0,0"
         id="path1" /></clipPath></defs><g
     inkscape:label="Layer 1"
     inkscape:groupmode="layer"
     id="layer1"
     transform="translate(-97.827285,-130.90092)"><path
       id="path1-6"
       style="fill:#8eef97;fill-opacity:1;stroke-width:2.31547"
       d="m 109.40437,130.90092 a 2.3154858,2.3154858 0 0 0 -1.63711,0.67851 l -9.261971,9.26197 a 2.3154858,2.3154858 0 0 0 0,3.27422 l 9.261971,9.26197 a 2.3154858,2.3154858 0 0 0 1.63711,0.67799 l 18.52393,5.2e-4 a 2.3154858,2.3154858 0 0 0 2.3151,-2.31562 v -18.52394 a 2.3154858,2.3154858 0 0 0 -2.3151,-2.31562 h -13.82345 l 2.2841,2.2841 c 0.89397,-0.3036 1.88294,-0.0731 2.55075,0.59428 0.67167,0.67236 0.90012,1.6689 0.58859,2.56677 l 3.59358,3.59306 c 0.89814,-0.31195 1.89586,-0.083 2.56781,0.58963 0.9701,0.96993 0.9701,2.54252 0,3.51245 -0.97106,0.97004 -2.54449,0.97004 -3.51555,0 -0.70837,-0.70953 -0.9209,-1.77514 -0.53899,-2.70216 l -3.35173,-3.35019 v 8.81859 c 1.52438,0.75302 1.85855,2.78047 0.65629,3.9827 -0.96993,0.9701 -2.54252,0.9701 -3.51245,0 -0.97034,-0.96997 -0.97034,-2.543 0,-3.51297 0.23241,-0.23288 0.50874,-0.4176 0.81287,-0.54311 v -8.8992 c -1.27424,-0.52485 -1.87875,-1.98601 -1.34772,-3.25769 l -3.67523,-3.67626 z m -2.31563,9.26197 a 2.3156209,2.3156209 0 0 1 0,4.63124 2.3156209,2.3156209 0 0 1 0,-4.63124 z" /></g></svg>
